<svg xmlns="http://www.w3.org/2000/svg" width="1200" height="630" viewBox="0 0 1200 630"><rect width="1200" height="630" fill="#0c1625"/><text x="66" y="60" fill="#5eead4" font-size="19" font-family="sans-serif">CRAZYCLOUDCC / VISUAL LAB</text><text x="66" y="125" fill="#f1f6ff" font-size="54" font-family="sans-serif">Binary Search</text><text x="66" y="167" fill="#c5d6e9" font-size="24" font-family="sans-serif">Find 9. Exclude mid. Shrink the window.</text><text x="66" y="245" fill="#8cbcff" font-size="27" font-family="sans-serif">[0, 4]</text><rect x="275" y="205" width="92" height="62" rx="10" fill="#164f48" stroke="#5eead4"/><text x="309" y="247" fill="#f1f6ff" font-size="30" font-family="sans-serif">1</text><rect x="387" y="205" width="92" height="62" rx="10" fill="#164f48" stroke="#5eead4"/><text x="421" y="247" fill="#f1f6ff" font-size="30" font-family="sans-serif">3</text><rect x="499" y="205" width="92" height="62" rx="10" fill="#164f48" stroke="#5eead4"/><text x="533" y="247" fill="#f1f6ff" font-size="30" font-family="sans-serif">5</text><rect x="611" y="205" width="92" height="62" rx="10" fill="#164f48" stroke="#5eead4"/><text x="645" y="247" fill="#f1f6ff" font-size="30" font-family="sans-serif">7</text><rect x="723" y="205" width="92" height="62" rx="10" fill="#164f48" stroke="#5eead4"/><text x="757" y="247" fill="#f1f6ff" font-size="30" font-family="sans-serif">9</text><text x="875" y="245" fill="#5eead4" font-size="26" font-family="sans-serif">mid = 2</text><text x="66" y="351" fill="#8cbcff" font-size="27" font-family="sans-serif">[3, 4]</text><rect x="275" y="311" width="92" height="62" rx="10" fill="#172d41" stroke="#48647c"/><text x="309" y="353" fill="#91a8c5" font-size="30" font-family="sans-serif">1</text><rect x="387" y="311" width="92" height="62" rx="10" fill="#172d41" stroke="#48647c"/><text x="421" y="353" fill="#91a8c5" font-size="30" font-family="sans-serif">3</text><rect x="499" y="311" width="92" height="62" rx="10" fill="#172d41" stroke="#48647c"/><text x="533" y="353" fill="#91a8c5" font-size="30" font-family="sans-serif">5</text><rect x="611" y="311" width="92" height="62" rx="10" fill="#164f48" stroke="#5eead4"/><text x="645" y="353" fill="#f1f6ff" font-size="30" font-family="sans-serif">7</text><rect x="723" y="311" width="92" height="62" rx="10" fill="#164f48" stroke="#5eead4"/><text x="757" y="353" fill="#f1f6ff" font-size="30" font-family="sans-serif">9</text><text x="875" y="351" fill="#5eead4" font-size="26" font-family="sans-serif">mid = 3</text><text x="66" y="457" fill="#8cbcff" font-size="27" font-family="sans-serif">[4, 4]</text><rect x="275" y="417" width="92" height="62" rx="10" fill="#172d41" stroke="#48647c"/><text x="309" y="459" fill="#91a8c5" font-size="30" font-family="sans-serif">1</text><rect x="387" y="417" width="92" height="62" rx="10" fill="#172d41" stroke="#48647c"/><text x="421" y="459" fill="#91a8c5" font-size="30" font-family="sans-serif">3</text><rect x="499" y="417" width="92" height="62" rx="10" fill="#172d41" stroke="#48647c"/><text x="533" y="459" fill="#91a8c5" font-size="30" font-family="sans-serif">5</text><rect x="611" y="417" width="92" height="62" rx="10" fill="#172d41" stroke="#48647c"/><text x="645" y="459" fill="#91a8c5" font-size="30" font-family="sans-serif">7</text><rect x="723" y="417" width="92" height="62" rx="10" fill="#164f48" stroke="#5eead4"/><text x="757" y="459" fill="#f1f6ff" font-size="30" font-family="sans-serif">9</text><text x="875" y="457" fill="#5eead4" font-size="26" font-family="sans-serif">found: 4</text><text x="66" y="575" fill="#5eead4" font-size="24" font-family="sans-serif">Sorted array / closed interval / O(log n)</text></svg>