<svg xmlns="http://www.w3.org/2000/svg" width="1200" height="630" viewBox="0 0 1200 630"><rect width="1200" height="630" fill="#0c1625"/><text x="66" y="60" fill="#5eead4" font-size="19" font-family="sans-serif">CRAZYCLOUDCC / VISUAL LAB</text><text x="66" y="125" fill="#f1f6ff" font-size="46" font-family="sans-serif">Longest Increasing Subsequence</text><text x="66" y="167" fill="#c5d6e9" font-size="24" font-family="sans-serif">LIS / Replace an ending, or extend the length.</text><text x="66" y="215" fill="#c5d6e9" font-size="26" font-family="sans-serif">Input: 3, 5, 7, 1, 2, 8</text><text x="66" y="287" fill="#8cbcff" font-size="26" font-family="sans-serif">append</text><rect x="300" y="247" width="92" height="62" rx="10" fill="#164f48" stroke="#5eead4"/><text x="334" y="289" fill="#f1f6ff" font-size="30" font-family="sans-serif">3</text><rect x="412" y="247" width="92" height="62" rx="10" fill="#164f48" stroke="#5eead4"/><text x="446" y="289" fill="#f1f6ff" font-size="30" font-family="sans-serif">5</text><rect x="524" y="247" width="92" height="62" rx="10" fill="#164f48" stroke="#5eead4"/><text x="558" y="289" fill="#f1f6ff" font-size="30" font-family="sans-serif">7</text><text x="66" y="372" fill="#8cbcff" font-size="26" font-family="sans-serif">replace</text><rect x="300" y="332" width="92" height="62" rx="10" fill="#164f48" stroke="#5eead4"/><text x="334" y="374" fill="#f1f6ff" font-size="30" font-family="sans-serif">1</text><rect x="412" y="332" width="92" height="62" rx="10" fill="#164f48" stroke="#5eead4"/><text x="446" y="374" fill="#f1f6ff" font-size="30" font-family="sans-serif">2</text><rect x="524" y="332" width="92" height="62" rx="10" fill="#164f48" stroke="#5eead4"/><text x="558" y="374" fill="#f1f6ff" font-size="30" font-family="sans-serif">7</text><text x="66" y="457" fill="#8cbcff" font-size="26" font-family="sans-serif">length = 4</text><rect x="300" y="417" width="92" height="62" rx="10" fill="#164f48" stroke="#5eead4"/><text x="334" y="459" fill="#f1f6ff" font-size="30" font-family="sans-serif">1</text><rect x="412" y="417" width="92" height="62" rx="10" fill="#164f48" stroke="#5eead4"/><text x="446" y="459" fill="#f1f6ff" font-size="30" font-family="sans-serif">2</text><rect x="524" y="417" width="92" height="62" rx="10" fill="#164f48" stroke="#5eead4"/><text x="558" y="459" fill="#f1f6ff" font-size="30" font-family="sans-serif">7</text><rect x="636" y="417" width="92" height="62" rx="10" fill="#164f48" stroke="#5eead4"/><text x="670" y="459" fill="#f1f6ff" font-size="30" font-family="sans-serif">8</text><text x="810" y="294" fill="#5eead4" font-size="25" font-family="sans-serif">minimum</text><text x="810" y="332" fill="#5eead4" font-size="25" font-family="sans-serif">endings</text><text x="810" y="414" fill="#c5d6e9" font-size="23" font-family="sans-serif">not the actual</text><text x="810" y="450" fill="#c5d6e9" font-size="23" font-family="sans-serif">subsequence</text><text x="66" y="575" fill="#5eead4" font-size="24" font-family="sans-serif">Strictly increasing / lower_bound / O(n log n)</text></svg>